<?xml version="1.0" standalone="no"?>
<!DOCTYPE svg PUBLIC "-//W3C//DTD SVG 20010904//EN"
 "http://www.w3.org/TR/2001/REC-SVG-20010904/DTD/svg10.dtd">
<svg version="1.0" xmlns="http://www.w3.org/2000/svg"
 width="225.000000pt" height="225.000000pt" viewBox="0 0 225.000000 225.000000"
 preserveAspectRatio="xMidYMid meet">

<g transform="translate(0.000000,225.000000) scale(0.100000,-0.100000)"
fill="#000000" stroke="none">
<path d="M1322 1742 c-41 -49 -122 -170 -122 -182 0 -4 46 -10 103 -13 171 -9
341 -70 509 -183 44 -29 85 -54 91 -54 5 0 36 16 68 35 l58 36 -18 52 c-38
111 -131 267 -193 324 l-24 23 -104 -60 -104 -60 -57 40 c-32 23 -83 52 -113
65 l-55 24 -39 -47z"/>
<path d="M416 1739 c-75 -83 -156 -226 -187 -332 -7 -26 -4 -29 94 -87 l102
-60 0 -125 c0 -96 3 -128 14 -134 17 -11 171 -31 235 -31 l47 0 -35 63 c-84
152 -120 322 -114 540 l3 139 -61 34 -61 34 -37 -41z"/>
<path d="M1065 1295 c-109 -38 -155 -174 -91 -267 46 -68 116 -94 200 -73 81
21 129 84 129 170 0 84 -52 153 -131 175 -47 13 -58 12 -107 -5z"/>
<path d="M1420 788 c-81 -142 -277 -309 -455 -389 l-76 -34 3 -75 3 -75 55
-12 c71 -14 279 -14 350 0 l55 12 3 123 3 123 44 19 c36 15 126 69 168 101 14
11 -64 199 -105 251 -12 15 -17 11 -48 -44z"/>
</g>
</svg>
